<svg xmlns="http://www.w3.org/2000/svg" viewBox="0 0 378 80"><defs><style>.cls-1,.cls-12,.cls-4{fill:#00285e;}.cls-2,.cls-6{fill:#fff;}.cls-3{fill:#6caddf;}.cls-10,.cls-11,.cls-4,.cls-5,.cls-6{fill-rule:evenodd;}.cls-5{fill:#96c1e7;}.cls-10,.cls-7{fill:#ffc758;}.cls-8{fill:#ee3124;}.cls-11,.cls-9{fill:#e9ab00;}.cls-12{font-size:33.55px;font-family:PingFangSC-Medium-GBpc-EUC-H, PingFang SC;}</style></defs><path class="cls-1" d="M65.22,7.78A28.28,28.28,0,1,0,93.5,36.05,28.3,28.3,0,0,0,65.22,7.78"/><path class="cls-2" d="M90.56,36.05A25.34,25.34,0,1,0,65.22,61.39,25.33,25.33,0,0,0,90.56,36.05"/><path class="cls-3" d="M81.35,36.05A16.13,16.13,0,1,0,65.22,52.18,16.13,16.13,0,0,0,81.35,36.05"/><path class="cls-1" d="M65.22,53.46A17.41,17.41,0,1,1,82.63,36.05,17.43,17.43,0,0,1,65.22,53.46Zm0-33.84A16.43,16.43,0,1,0,81.66,36.05,16.45,16.45,0,0,0,65.22,19.62Z"/><path class="cls-3" d="M65.22,63.17A27.12,27.12,0,1,1,92.34,36.05,27.14,27.14,0,0,1,65.22,63.17m0-53.65A26.53,26.53,0,1,0,91.75,36.05,26.56,26.56,0,0,0,65.22,9.52"/><path class="cls-3" d="M42.59,35.43l-.46.12L42,35.07l.76-.22h.39V37.5h-.57Z"/><path class="cls-3" d="M43.82,36.78h0a.65.65,0,0,1,.43-.64.62.62,0,0,1-.33-.57h0c0-.4.36-.72.92-.72s.92.32.92.72h0a.62.62,0,0,1-.33.57.65.65,0,0,1,.42.62h0c0,.49-.43.77-1,.77S43.82,37.23,43.82,36.78Zm1.47-.05h0c0-.2-.19-.32-.45-.32s-.46.12-.46.32h0c0,.18.17.33.46.33S45.29,36.91,45.29,36.73Zm-.08-1.11h0c0-.17-.13-.31-.37-.31s-.38.14-.38.3h0a.34.34,0,0,0,.38.32A.33.33,0,0,0,45.21,35.62Z"/><path class="cls-3" d="M85.51,36.42a.81.81,0,0,1-.53.18.84.84,0,0,1-.94-.85h0a.93.93,0,0,1,1-.92,1,1,0,0,1,.76.29,1.29,1.29,0,0,1,.31,1h0c0,.85-.4,1.43-1.15,1.43a1.28,1.28,0,0,1-.86-.31l.3-.44A.9.9,0,0,0,85,37C85.38,37,85.49,36.64,85.51,36.42Zm0-.69h0a.41.41,0,0,0-.46-.4.4.4,0,0,0-.45.4h0a.41.41,0,0,0,.46.4A.4.4,0,0,0,85.52,35.73Z"/><path class="cls-3" d="M88,36.93H86.68l-.1-.41L88,34.85h.49v1.61h.35v.47h-.35v.56H88Zm0-.47v-.82l-.7.82Z"/><path class="cls-2" d="M65.22,52.49A16.44,16.44,0,1,1,81.66,36.05,16.46,16.46,0,0,1,65.22,52.49m0-32.26A15.83,15.83,0,1,0,81.05,36.05,15.84,15.84,0,0,0,65.22,20.23"/><path class="cls-4" d="M64.92,21.91A63.88,63.88,0,0,0,52.13,23a48.37,48.37,0,0,0-.81,16.22c.45,3.82,3.56,12,13.86,14.85h0C75.48,51.23,78.58,43,79,39.19A48.37,48.37,0,0,0,78.22,23a63.88,63.88,0,0,0-12.79-1.06Z"/><path class="cls-5" d="M77.62,37.06c-.1,2.77-.52,11-12.44,15.57-11.83-4.42-12.44-13-12.44-15.57Z"/><path class="cls-6" d="M77.26,36.6a54.85,54.85,0,0,0-.84-12.39,66,66,0,0,0-11.23-.85,61.23,61.23,0,0,0-11.31.94A51.88,51.88,0,0,0,53,36.6Z"/><path class="cls-3" d="M65.55,52.38,53,37.18C52.51,40.31,55.06,49.55,65.55,52.38Z"/><path class="cls-3" d="M56.72,37.08l11.64,14a13.6,13.6,0,0,0,2.86-1.78L61.06,37.08Z"/><path class="cls-3" d="M64.8,37.09l8.6,10.37a15.82,15.82,0,0,0,2.06-2.74l-6.32-7.63Z"/><path class="cls-3" d="M77.41,37.09h-4.3l3.61,4.36A12.43,12.43,0,0,0,77.41,37.09Z"/><path class="cls-1" d="M70.26,42.78h0a.34.34,0,0,0-.21-.21l-.72-.25a.31.31,0,0,0-.19,0,1.06,1.06,0,0,0-.4-.63l-.08,0a.48.48,0,0,0-.16-.08l-.28-.1a2.53,2.53,0,0,1-.68-.32,1.71,1.71,0,0,1-.46-.5.76.76,0,0,1-.08-.11.9.9,0,0,0-.27-.28,1,1,0,0,0-.62-.2l-.15,0h0a.36.36,0,0,0-.07-.26l-.44-.59a.33.33,0,0,0-.27-.14h0a.34.34,0,0,0-.27.13l-.46.6a.35.35,0,0,0-.07.26h-.11a1.07,1.07,0,0,0-.62.2l-.07.06a.49.49,0,0,0-.13.12,1.81,1.81,0,0,0-.18.23,2.16,2.16,0,0,1-.52.54,2,2,0,0,1-.62.29l-.13,0a.88.88,0,0,0-.35.17,1,1,0,0,0-.42.64.3.3,0,0,0-.23,0l-.71.23a.38.38,0,0,0-.21.22h0a.33.33,0,0,0,0,.29l.43.62a.32.32,0,0,0,.21.13,1.05,1.05,0,0,0-.06.78.59.59,0,0,1,0,.08.48.48,0,0,0,.08.16,1.43,1.43,0,0,0,.16.24,2.12,2.12,0,0,1,.36.66,1.73,1.73,0,0,1,.08.67v.14a1,1,0,0,0,0,.38,1,1,0,0,0,.48.58.33.33,0,0,0-.05.16v.75a.38.38,0,0,0,.14.26h0a.33.33,0,0,0,.29.05l.73-.22a.42.42,0,0,0,.16-.11,1.05,1.05,0,0,0,.81.28l.18,0,.28-.08a2.07,2.07,0,0,1,.74-.14,1.84,1.84,0,0,1,.67.13l.13,0a1,1,0,0,0,.39.08,1.1,1.1,0,0,0,.72-.29.33.33,0,0,0,.15.11l.71.22a.35.35,0,0,0,.3,0h0a.3.3,0,0,0,.14-.26l0-.75a.25.25,0,0,0,0-.17,1,1,0,0,0,.47-.58l0-.09a.47.47,0,0,0,0-.17c0-.1,0-.2,0-.29a2.1,2.1,0,0,1,.1-.74,1.66,1.66,0,0,1,.33-.6l.08-.1a1,1,0,0,0,.19-.34,1.05,1.05,0,0,0-.06-.8.36.36,0,0,0,.16-.11l.43-.61A.35.35,0,0,0,70.26,42.78Z"/><path class="cls-7" d="M64.79,44.39a.42.42,0,0,1,.42-.42.42.42,0,0,1,0,.84A.42.42,0,0,1,64.79,44.39Z"/><path class="cls-8" d="M65.2,40.83a1,1,0,0,0-.44-.61l.44-.56.42.56a1.06,1.06,0,0,0-.42.61M61.82,43.3a1.1,1.1,0,0,1-.45-.58l-.67.22.41.58a1.06,1.06,0,0,1,.71-.22m1.31,3.91a1.14,1.14,0,0,1-.7.24v.7l.68-.2a1,1,0,0,1,0-.74m4.15,0a1,1,0,0,1,0,.74l.68.21,0-.71a1,1,0,0,1-.71-.24m1.27-3.91a1.09,1.09,0,0,1,.71.21l.41-.57L69,42.7a1,1,0,0,1-.45.6m-4.2,3.93a.57.57,0,0,1-.57-.56c0-.05,0-.07-.07,0a1.33,1.33,0,0,0-.37.74.71.71,0,0,0,.72.71h.07a.25.25,0,0,0,.12,0,3.65,3.65,0,0,1,1-.2,2.15,2.15,0,0,1,.82.17.87.87,0,0,0,.28,0,.7.7,0,0,0,.71-.71,1.25,1.25,0,0,0-.37-.74s0,0,0,0a.57.57,0,0,1-.57.56c-.24,0-.54-.2-.84-.2S64.58,47.23,64.35,47.23ZM64,46.45a.47.47,0,0,0,.48.47h.09l0,0h0a1.68,1.68,0,0,1,.6-.13,1.83,1.83,0,0,1,.59.12.47.47,0,0,0,.64-.44.41.41,0,0,0,0-.19l0-.07-.83-1.12s-.09,0-.13,0a1,1,0,0,1-.2,0,.59.59,0,0,1-.2,0s-.09,0-.13,0l-.78,1.07A.45.45,0,0,0,64,46.45Zm3.69-.36a.55.55,0,0,1-.71.36s-.07,0,0,0a1.27,1.27,0,0,0,.59.58.72.72,0,0,0,.91-.46s0,0,0-.07a.35.35,0,0,0,0-.11,3,3,0,0,1,.11-1,2.19,2.19,0,0,1,.42-.72.92.92,0,0,0,.13-.24.7.7,0,0,0-.46-.89,1.22,1.22,0,0,0-.82.12s0,0,0,0a.58.58,0,0,1,.37.72c-.08.22-.36.44-.46.73S67.74,45.87,67.66,46.09Zm-.86.11a.47.47,0,0,0,.6-.3.2.2,0,0,0,0-.09v-.06a1.5,1.5,0,0,1,.06-.6,1.77,1.77,0,0,1,.3-.53.64.64,0,0,0,.08-.14.48.48,0,0,0-.31-.6.62.62,0,0,0-.19,0l-.08,0L66,44.31c-.06,0-.06.08-.06.12a1,1,0,0,1,0,.2.68.68,0,0,1-.09.17s-.07.08,0,.13.61.82.79,1.07A.47.47,0,0,0,66.8,46.2Zm.78-3.61a.56.56,0,0,1,.13.79s0,.07,0,.06a1.25,1.25,0,0,0,.74-.38.7.7,0,0,0-.16-1l-.06,0L68.15,42a3.25,3.25,0,0,1-.93-.42,2.26,2.26,0,0,1-.56-.61.61.61,0,0,0-.19-.2.72.72,0,0,0-1,.15,1.29,1.29,0,0,0-.14.82s0,0,.06,0a.58.58,0,0,1,.8-.12c.19.14.32.48.56.65S67.39,42.45,67.58,42.59Zm-.16.85a.47.47,0,0,0-.1-.66l-.08-.05h-.06a1.67,1.67,0,0,1-.56-.24,1.94,1.94,0,0,1-.41-.45.41.41,0,0,0-.11-.12.49.49,0,0,0-.67.1.71.71,0,0,0-.08.18s0,.06,0,.08,0,1.35,0,1.39.05.07.09.09a.75.75,0,0,1,.18.09.47.47,0,0,1,.14.14c0,.05.06.09.12.06l1.27-.41A.42.42,0,0,0,67.42,43.44ZM64.21,41.6a.57.57,0,0,1,.8.12s.06,0,.06,0a1.29,1.29,0,0,0-.13-.82.72.72,0,0,0-1-.15.1.1,0,0,0-.06,0,.32.32,0,0,0-.09.08,3.21,3.21,0,0,1-.69.75,2,2,0,0,1-.76.33.72.72,0,0,0-.25.12.7.7,0,0,0-.16,1,1.2,1.2,0,0,0,.73.38s.05,0,0,0a.56.56,0,0,1,.12-.79c.2-.14.56-.15.8-.33S64,41.74,64.21,41.6ZM65,42a.48.48,0,0,0-.66-.11s0,0-.07.06l0,0v0a1.61,1.61,0,0,1-.41.45,1.9,1.9,0,0,1-.55.25.41.41,0,0,0-.15.07.47.47,0,0,0-.11.66.37.37,0,0,0,.15.13l.07,0,1.33.42a.1.1,0,0,0,.12-.06.92.92,0,0,1,.14-.15.71.71,0,0,1,.18-.08c.06,0,.1,0,.09-.09s0-1,0-1.33A.44.44,0,0,0,65,42Zm-2.75,2.47a.55.55,0,0,1,.36-.71s.05-.06,0-.07a1.22,1.22,0,0,0-.82-.12.7.7,0,0,0-.46.89s0,.05,0,.07a.34.34,0,0,0,0,.11,3,3,0,0,1,.5.88,2,2,0,0,1,.09.82.63.63,0,0,0,0,.27.72.72,0,0,0,.91.46,1.31,1.31,0,0,0,.59-.58s0,0,0,0a.57.57,0,0,1-.72-.36c-.07-.22,0-.57-.07-.85S62.29,44.7,62.22,44.48Zm.63-.6a.48.48,0,0,0-.31.6l0,.08,0,0h0a1.68,1.68,0,0,1,.31.53,1.74,1.74,0,0,1,.06.6.45.45,0,0,0,0,.16.47.47,0,0,0,.6.3.56.56,0,0,0,.17-.09l0-.06s.8-1.09.82-1.13,0-.09,0-.12a1,1,0,0,1-.1-.18.47.47,0,0,1,0-.2c0-.05,0-.1-.06-.11l-1.27-.41A.47.47,0,0,0,62.85,43.88Z"/><path class="cls-7" d="M69.18,29.79l2.91-1a9.53,9.53,0,0,0-.18,2.16,4.51,4.51,0,0,0,.79,2.14l-3.58,1.24Z"/><path class="cls-9" d="M72.7,33.08a4.8,4.8,0,0,1-.74-2,8,8,0,0,1,.13-2.32,8.39,8.39,0,0,1-1.91,3.57,3.65,3.65,0,0,0-.86,1.44l-.06-6.86h0l-.76.26c-.09,0-.12.08-.12.1a.11.11,0,0,1-.09.08l-.73.26s0,.06,0,.06l.85-.05a.12.12,0,0,0,.1-.09h0a.12.12,0,0,1,.11-.09l.45-.05L69,34.78h.33v-.53Z"/><path class="cls-7" d="M59.79,34.51a2,2,0,0,1-.69-1.16,1.51,1.51,0,0,1,.23-1.22l3.53-1.21a3.12,3.12,0,0,0,0,1.5,4.88,4.88,0,0,0,.81,1.69A9.74,9.74,0,0,0,61.11,34C59.91,34.17,59.79,34.51,59.79,34.51Z"/><path class="cls-7" d="M55.72,33.62a7.88,7.88,0,0,1,1.73-2.51,6.58,6.58,0,0,1,1.62-1.29,5.71,5.71,0,0,0-.8,2.15,6.83,6.83,0,0,0,0,1.88s-.65-.14-1.42-.22A5.55,5.55,0,0,0,55.72,33.62Z"/><path class="cls-9" d="M59.07,29.83A5.81,5.81,0,0,0,58.28,32a6.57,6.57,0,0,0,0,1.87l-.55-.12C56.16,33.37,59.07,29.83,59.07,29.83Z"/><path class="cls-9" d="M61.14,30.8l0-3.18h0l-.75.26c-.09,0-.12.08-.12.1s0,.06-.09.08l-.73.25s0,.07,0,.07l.85-.06a.1.1,0,0,0,.1-.08h0a.14.14,0,0,1,.11-.1l.44,0,0,2.71Z"/><path class="cls-9" d="M65.26,27.93h.24V24.87h0l-.76.27c-.09,0-.12.08-.12.1s0,.06-.09.08l-.74.25s0,.07,0,.07l.85-.06a.1.1,0,0,0,.1-.09h0a.13.13,0,0,1,.11-.1l.43,0Z"/><path class="cls-7" d="M64.63,25.58h0a.09.09,0,0,0,.1-.09s0,0,0,0a.11.11,0,0,1,.07-.08l-.09-.27a.14.14,0,0,0-.11.1.07.07,0,0,1-.06.07Z"/><path class="cls-7" d="M60.24,28.33h0a.1.1,0,0,0,.1-.08h0a.1.1,0,0,1,.07-.08l-.09-.27a.14.14,0,0,0-.11.1.08.08,0,0,1-.07.07Z"/><path class="cls-7" d="M68.39,27.64h0a.12.12,0,0,0,.11-.09h0a.16.16,0,0,1,.06-.08l-.08-.27c-.08,0-.12.08-.12.1s0,.06-.06.08Z"/><path class="cls-9" d="M63.65,34.11a6.15,6.15,0,0,1-.79-1.71,3.34,3.34,0,0,1,0-1.48,4.49,4.49,0,0,1-1.27,2c-.63.49-2.15.95-1.8,1.59,0-.09.2-.26.83-.4l.23,0v1h.33V34A11.05,11.05,0,0,1,63.65,34.11Z"/><path class="cls-7" d="M59.42,31.92s-.41-.25-.37-1.06a2,2,0,0,1,.47-1.21l2.75-.94a1.67,1.67,0,0,0-.06,1,2.35,2.35,0,0,0,.65,1.18,9.82,9.82,0,0,0-2.62.44A1.55,1.55,0,0,0,59.42,31.92Z"/><path class="cls-9" d="M61.05,30.18a5.38,5.38,0,0,0,1.22-1.47,2.92,2.92,0,0,0,0,1,2.32,2.32,0,0,0,.61,1.22,10.63,10.63,0,0,0-2.32.35,1.8,1.8,0,0,0-1.12.65C59.16,31.32,60.24,30.85,61.05,30.18Z"/><path class="cls-7" d="M64.19,34.72a2.74,2.74,0,0,1-.94-1.62,1.83,1.83,0,0,1,.41-1.45L68,30.17a4.4,4.4,0,0,0,0,1.86,8.12,8.12,0,0,0,1.18,2.3A9.57,9.57,0,0,0,65.79,34C64.32,34.19,64.19,34.72,64.19,34.72Z"/><path class="cls-7" d="M63.3,27.9a1.84,1.84,0,0,1,.45-1.19l3.09-1.08a2.27,2.27,0,0,0-.16.9,2.1,2.1,0,0,0,.55,1.21,7.44,7.44,0,0,0-2.63.43c-.79.27-.87.65-.87.65S63.34,28.71,63.3,27.9Z"/><path class="cls-9" d="M65.75,27.08a6.91,6.91,0,0,0,1.09-1.45,2.27,2.27,0,0,0-.16.9,2.1,2.1,0,0,0,.55,1.21,8.82,8.82,0,0,0-2.57.42,1.56,1.56,0,0,0-.93.66C63.54,28.21,65,27.75,65.75,27.08Z"/><path class="cls-7" d="M63.75,31.46a2.5,2.5,0,0,1-.53-1.3A1.18,1.18,0,0,1,63.66,29l3.57-1.24a2.33,2.33,0,0,0,0,1,4.07,4.07,0,0,0,.67,1.43,11.4,11.4,0,0,0-3.08.51A2.22,2.22,0,0,0,63.75,31.46Z"/><path class="cls-9" d="M66.11,29.4a4.44,4.44,0,0,0,1.12-1.66,3,3,0,0,0,0,1A3.89,3.89,0,0,0,68,30.17a11.15,11.15,0,0,0-2.87.43,2.76,2.76,0,0,0-1.34.86C63.59,30.8,65.34,30.06,66.11,29.4Z"/><path class="cls-9" d="M69.2,34.38A7.87,7.87,0,0,1,67.94,32a4.56,4.56,0,0,1,0-1.85,5.6,5.6,0,0,1-1.45,2.52c-.91.84-2.71,1.25-2.32,2,.07-.13.27-.43,1-.61v1h.34V34.05A10.56,10.56,0,0,1,69.2,34.38Z"/><path class="cls-10" d="M70.85,36.75c.23,0,.45-.09.78-.18l0,0a.73.73,0,0,1-.08-1c.8-.75.79-1.3.79-1.3a32.29,32.29,0,0,1-4.51.54c-.17,0-.77.27-.94.28l-1.09,0A31.69,31.69,0,0,1,58,34.44a10.82,10.82,0,0,1-2.31-.63l-.06.17s1.27.5,2.18.94A10.81,10.81,0,0,1,59,36.54H53.21a47.84,47.84,0,0,1,1-12,58.31,58.31,0,0,1,11-.94v-.71a61.81,61.81,0,0,0-11.72,1,43.85,43.85,0,0,0-1,15.79C53,43.26,55.94,50,65.18,53.06l.4-.57-.4-.56C56.48,49,53.94,43.13,53.5,39.76c-.1-.75-.17-1.49-.23-2.22H65.21v-1H59.08c.14-.45.57-.56,1.1-.43a6.33,6.33,0,0,0,1.63.25c1.31-.07,1.12-.42,1.23-.41,1.35.08,1.86.41,3,.39a4.05,4.05,0,0,0,1.55-.3c1.31,0,1.8.59,3.12.7Z"/><path class="cls-11" d="M76.87,23.89a61.45,61.45,0,0,0-11.7-1v.71a58,58,0,0,1,11,.94,47.84,47.84,0,0,1,1,12H71.37a.85.85,0,0,1,0-1.17c.68-.6.68-1,.68-1a22.77,22.77,0,0,1-4.13.5c-.16,0-.88.33-1.06.34l-1.22,0a31.93,31.93,0,0,1-7.89-.68l.14.17s1.27.35,1.29.37a2,2,0,0,0,.74.6,4.75,4.75,0,0,0,1.73.5c1.31.07,1.07-.41,1.19-.42,1.34,0,2.2.46,3.38.44s1.11-.35,1.21-.35a8.45,8.45,0,0,1,3.06.7H65.18v1H77.09c-.06.73-.13,1.47-.23,2.22-.44,3.37-3,9.25-11.68,12.17v1.13c9.23-3.1,12.2-9.8,12.65-13.38A43.85,43.85,0,0,0,76.87,23.89Z"/><polygon class="cls-1" points="43.6 27 44.09 26.08 46.27 25.92 45.16 24.03 45.65 23.11 49.53 25.16 49.08 26 46.55 24.67 47.63 26.64 47.62 26.66 45.41 26.88 47.93 28.2 47.49 29.04 43.6 27"/><path class="cls-1" d="M48,20.1l.61-.65,4.51,1.66-.7.74-1-.38L50.2,22.82l.44,1L50,24.5Zm2.58,1-1.44-.55.64,1.4Z"/><polygon class="cls-1" points="51.52 16.91 52.28 16.45 55.44 17.69 54.04 15.38 54.85 14.89 57.13 18.64 56.42 19.06 53.16 17.78 54.61 20.16 53.8 20.66 51.52 16.91"/><path class="cls-1" d="M57.41,16.15v0A2.24,2.24,0,0,1,59,13.32a2.27,2.27,0,0,1,1.85.17l-.39.85a1.59,1.59,0,0,0-1.22-.16,1.29,1.29,0,0,0-.84,1.66h0a1.32,1.32,0,0,0,1.61,1,1.57,1.57,0,0,0,1-.82l.77.43a2.26,2.26,0,0,1-1.51,1.25A2.21,2.21,0,0,1,57.41,16.15Z"/><polygon class="cls-1" points="62.67 12.63 63.63 12.6 63.68 14.34 65.46 14.29 65.41 12.56 66.38 12.53 66.49 16.92 65.52 16.94 65.48 15.18 63.7 15.23 63.74 16.99 62.78 17.01 62.67 12.63"/><path class="cls-1" d="M72.05,17.52l.81-.38a2,2,0,0,0,1,1c.36.16.64.12.74-.11h0c.1-.23,0-.4-.57-.88s-1.12-1-.76-1.83h0a1.38,1.38,0,0,1,1.95-.56A2.52,2.52,0,0,1,76.45,16l-.76.45a2.16,2.16,0,0,0-.85-.87c-.34-.15-.58-.08-.67.11h0c-.12.27,0,.43.62.93s1,1.08.71,1.77v0a1.39,1.39,0,0,1-2,.55A2.87,2.87,0,0,1,72.05,17.52Z"/><polygon class="cls-1" points="78.45 17.77 77.39 16.96 77.93 16.25 80.82 18.45 80.28 19.16 79.22 18.35 77.1 21.14 76.33 20.55 78.45 17.77"/><path class="cls-1" d="M85.39,24l.9,1.79a1.74,1.74,0,0,1,.18,1.34,1.4,1.4,0,0,1-.73.79h0a1.36,1.36,0,0,1-1.64-.23l-.92,1.66-.5-1,.83-1.47-.34-.68-1.26.63L81.47,26Zm-1,2.69c.21.42.55.55.88.38h0c.37-.18.43-.53.21-.95L85,25.25l-1.12.57Z"/><polygon class="cls-1" points="69.13 15.56 70.74 15.92 71.19 15.13 69.31 14.73 69.5 13.86 71.79 14.35 71.98 13.52 68.74 12.81 67.81 17.1 71.08 17.81 71.26 16.97 68.93 16.47 69.13 15.56"/><polygon class="cls-1" points="82.14 19.76 78.78 22.57 80.93 25.14 81.58 24.58 80.06 22.76 80.76 22.17 81.84 23.45 82.71 23.15 81.42 21.61 82.1 21.04 83.61 22.84 84.27 22.29 82.14 19.76"/><path class="cls-1" d="M57.79,57.15h0a2.4,2.4,0,0,1,4.08-1.62l-.62.72a1.68,1.68,0,0,0-1.14-.51,1.33,1.33,0,0,0-1.3,1.4h0a1.33,1.33,0,0,0,1.3,1.4A1.6,1.6,0,0,0,61.28,58l.63.63a2.3,2.3,0,0,1-1.84.8A2.25,2.25,0,0,1,57.79,57.15Z"/><path class="cls-1" d="M62.86,54.91h1v4.46h-1Z"/><path class="cls-1" d="M66.13,55.81H64.77v-.9h3.7v.9H67.11v3.56h-1Z"/><path class="cls-1" d="M70.6,57.61l-1.71-2.7H70L71.1,56.7l1.08-1.79H73.3l-1.71,2.68v1.78h-1Z"/><text class="cls-12" transform="translate(106.2 54.27)" x="0" y="-5" dx="0">曼城足球俱乐部</text></svg>
